HIERARCHY
ROOT Hips
{
	OFFSET 0.000000 88.474243 0.000000
	CHANNELS 6 Xposition Yposition Zposition Zrotation Yrotation Xrotation 
	JOINT Hips_Spine
	{
		OFFSET 0.000000 0.000000 0.000000
		CHANNELS 3 Zrotation Yrotation Xrotation
		JOINT Spine
		{
			OFFSET 0.005100 8.711998 -0.691000
			CHANNELS 3 Zrotation Yrotation Xrotation
			JOINT Spine1
			{
				OFFSET -0.009200 8.660301 -1.275000
				CHANNELS 3 Zrotation Yrotation Xrotation
				JOINT Spine2
				{
					OFFSET 0.006300 9.852501 -1.857000
					CHANNELS 3 Zrotation Yrotation Xrotation
					JOINT Spine2_Neck
					{
						OFFSET 0.000000 0.000000 0.000000
						CHANNELS 3 Zrotation Yrotation Xrotation
						JOINT Neck
						{
							OFFSET 0.016300 11.420799 -0.263300
							CHANNELS 3 Zrotation Yrotation Xrotation
							End Site #name: Head
							{
								OFFSET -0.019200 9.262405 2.362500
							}
						}
					}
					JOINT Spine2_LeftShoulder
					{
						OFFSET 0.000000 0.000000 0.000000
						CHANNELS 3 Zrotation Yrotation Xrotation
						JOINT LeftShoulder
						{
							OFFSET 5.616900 6.732201 -0.345700
							CHANNELS 3 Zrotation Yrotation Xrotation
							JOINT LeftArm
							{
								OFFSET 10.664888 -0.183372 -2.440700
								CHANNELS 3 Zrotation Yrotation Xrotation
								JOINT LeftForeArm
								{
									OFFSET 27.459126 0.000000 0.000000
									CHANNELS 3 Zrotation Yrotation Xrotation
									End Site #name: LeftHand
									{
										OFFSET 21.306858 0.000000 0.000000
									}
								}
							}
						}
					}
					JOINT Spine2_RightShoulder
					{
						OFFSET 0.000000 0.000000 0.000000
						CHANNELS 3 Zrotation Yrotation Xrotation
						JOINT RightShoulder
						{
							OFFSET -5.580300 6.737503 -0.344400
							CHANNELS 3 Zrotation Yrotation Xrotation
							JOINT RightArm
							{
								OFFSET -10.679335 -0.188484 -2.383900
								CHANNELS 3 Zrotation Yrotation Xrotation
								JOINT RightForeArm
								{
									OFFSET -27.503529 0.000000 0.000000
									CHANNELS 3 Zrotation Yrotation Xrotation
									End Site #name: RightHand
									{
										OFFSET -21.306808 0.000000 0.000000
									}
								}
							}
						}
					}
				}
			}
		}
	}
	JOINT Hips_LeftUpLeg
	{
		OFFSET 0.000000 0.000000 0.000000
		CHANNELS 3 Zrotation Yrotation Xrotation
		JOINT LeftUpLeg
		{
			OFFSET 6.857700 -6.739601 0.312100
			CHANNELS 3 Zrotation Yrotation Xrotation
			JOINT LeftLeg
			{
				OFFSET -0.367590 -34.731552 -4.572400
				CHANNELS 3 Zrotation Yrotation Xrotation
				End Site #name: LeftFoot
				{
					OFFSET 0.367590 -34.656704 -6.067400
				}
			}
		}
	}
	JOINT Hips_RightUpLeg
	{
		OFFSET 0.000000 0.000000 0.000000
		CHANNELS 3 Zrotation Yrotation Xrotation
		JOINT RightUpLeg
		{
			OFFSET -6.876100 -6.733299 0.301000
			CHANNELS 3 Zrotation Yrotation Xrotation
			JOINT RightLeg
			{
				OFFSET 0.347353 -34.795158 -4.515900
				CHANNELS 3 Zrotation Yrotation Xrotation
				End Site #name: RightFoot
				{
					OFFSET -0.347353 -34.589367 -6.070300
				}
			}
		}
	}
}
MOTION
Frames: 6
Frame Time: 0.041667
0.557733 0.773355 -1.146946 1.609778 -2.995575 -6.599551 -0.000000 0.000000 -0.000000 -2.158688 -0.402544 -3.600303 2.148855 -2.022713 -5.981889 0.000000 0.000000 0.000000 2.578685 -1.440604 -6.101963 2.676116 -5.648452 -3.299470 1.117761 -1.749115 -6.728589 -17.926853 0.185174 10.022315 -54.139752 12.026648 -4.280903 -0.620800 -22.342974 7.935358 1.567480 -1.821620 -3.327445 4.131659 5.916132 1.411837 66.048964 -1.928149 -8.843729 0.314332 46.340244 -0.771748 -0.000000 -0.000000 -0.000000 -9.695297 24.885947 -1.644770 -1.818885 0.729644 18.003781 0.000000 0.000000 0.000000 -6.434834 7.268356 -18.902769 4.832931 -4.380427 14.339856 
0.334878 0.775985 -1.221940 1.336546 -3.582147 -6.661283 -0.000000 0.000000 -0.000000 -1.178233 -0.446423 -4.248329 2.326042 -2.045106 -5.944008 0.000000 0.000000 0.000000 2.737835 -1.399623 -6.091409 2.629936 -5.815100 -3.021259 1.301476 -1.709227 -6.648890 -17.351077 0.070992 10.144373 -55.112964 12.971827 -4.911290 -0.638583 -22.920691 7.803700 1.736431 -1.794807 -3.351445 4.281914 6.041901 1.454538 65.976375 -1.971789 -8.633274 0.324979 46.262901 -0.772271 -0.000000 -0.000000 -0.000000 -9.017283 25.015661 -1.392228 -1.995543 0.488058 18.360340 0.000000 0.000000 0.000000 -5.667289 7.570258 -19.184547 5.046696 -4.665056 14.375964 
0.133706 0.774679 -1.295403 1.072096 -3.745894 -6.711309 -0.000000 0.000000 -0.000000 -0.187627 -0.475645 -4.927214 2.510667 -2.058325 -5.875566 0.000000 0.000000 0.000000 2.901752 -1.349155 -6.052864 2.571127 -6.025205 -2.660169 1.495057 -1.660241 -6.534977 -16.776315 -0.049708 10.220635 -56.062710 13.834024 -5.578688 -0.662232 -23.494318 7.686908 1.919431 -1.763064 -3.363075 4.428566 6.141117 1.485870 65.982696 -1.933247 -8.331300 0.333749 46.170657 -0.773306 -0.000000 -0.000000 -0.000000 -8.395402 25.146173 -0.896932 -2.160656 0.210258 18.261160 0.000000 0.000000 0.000000 -4.896171 7.888401 -19.407668 5.255471 -4.962220 14.397721 
-0.036527 0.769400 -1.366788 0.831355 -4.063283 -6.699231 -0.000000 -0.000000 -0.000000 0.636449 -0.483149 -5.546140 2.701964 -2.061302 -5.777995 0.000000 0.000000 0.000000 3.065446 -1.292491 -5.987170 2.513154 -6.235750 -2.244259 1.690754 -1.601997 -6.385683 -16.173193 -0.194271 10.253756 -56.972654 14.571831 -6.191125 -0.703113 -24.091648 7.566523 2.097097 -1.720679 -3.354971 4.594309 6.234913 1.515330 66.004237 -1.905703 -8.031345 0.340972 46.267322 -0.778285 -0.000000 -0.000000 -0.000000 -7.762674 25.276276 -0.314037 -2.309988 -0.126246 18.007066 0.000000 -0.000000 0.000000 -4.139361 8.252917 -19.668883 5.453185 -5.224472 14.451829 
-0.165884 0.762311 -1.435981 0.633831 -4.973176 -6.662592 -0.000000 -0.000000 -0.000000 1.274636 -0.495466 -6.122503 2.879961 -2.056704 -5.654390 0.000000 0.000000 0.000000 3.205862 -1.228219 -5.890249 2.438369 -6.441667 -1.729063 1.878852 -1.544157 -6.218984 -15.568547 -0.431630 10.209264 -57.673494 15.004335 -6.909723 -0.753196 -24.664403 7.453737 2.265117 -1.674429 -3.328699 4.812091 6.344509 1.548361 65.963757 -1.936474 -7.842637 0.349536 46.408399 -0.780642 -0.000000 -0.000000 -0.000000 -7.195341 25.413732 0.305528 -2.432102 -0.406720 17.723188 0.000000 -0.000000 0.000000 -3.440579 8.698496 -19.972090 5.641104 -5.425497 14.620059 
-0.245918 0.756054 -1.505902 0.516770 -6.532133 -6.626770 -0.000000 -0.000000 -0.000000 1.874589 -0.495603 -6.498894 3.037995 -2.056584 -5.514174 0.000000 0.000000 0.000000 3.313548 -1.166944 -5.775207 2.331768 -6.605746 -1.136810 2.052215 -1.492562 -6.043125 -14.967592 -0.702452 10.133804 -58.322043 15.317377 -7.551108 -0.817516 -25.241593 7.350504 2.411802 -1.630329 -3.281320 5.083811 6.483688 1.586876 65.830867 -2.086468 -7.796560 0.363453 46.684755 -0.778915 -0.000000 -0.000000 -0.000000 -6.682476 25.512619 0.917504 -2.569712 -0.612658 17.438080 0.000000 -0.000000 0.000000 -2.851977 9.222659 -20.295561 5.794988 -5.600610 14.908298 
